<?xml version="1.0" standalone="no"?>
<!DOCTYPE svg PUBLIC "-//W3C//DTD SVG 20010904//EN"
 "http://www.w3.org/TR/2001/REC-SVG-20010904/DTD/svg10.dtd">
<svg version="1.0" xmlns="http://www.w3.org/2000/svg"
 width="474.000000pt" height="472.000000pt" viewBox="0 0 474.000000 472.000000"
 preserveAspectRatio="xMidYMid meet">
<metadata>
Created by potrace 1.16, written by Peter Selinger 2001-2019
</metadata>
<g transform="translate(0.000000,472.000000) scale(0.100000,-0.100000)"
fill="#000000" stroke="none">
<path d="M3550 2690 l0 -2030 -22 5 c-20 4 -733 111 -1208 180 -91 13 -379 56
-640 95 -261 39 -581 87 -710 106 -129 19 -280 41 -335 49 -55 9 -134 20 -175
26 -41 6 -144 21 -229 35 -85 13 -156 23 -157 21 -2 -2 146 -53 1706 -578 393
-132 909 -306 1145 -385 237 -80 466 -157 510 -171 44 -14 82 -29 83 -34 5
-12 52 -11 52 1 0 6 5 10 10 10 6 0 65 23 133 51 67 28 176 74 242 101 66 27
156 65 200 83 44 19 152 63 240 100 88 36 195 81 238 100 43 19 85 35 93 35
12 0 14 264 14 1868 l0 1867 -58 22 c-31 12 -115 46 -187 76 -71 30 -224 94
-340 142 -115 48 -280 116 -365 152 -85 36 -169 70 -187 76 -18 5 -30 14 -27
19 3 4 -2 8 -10 8 -14 0 -16 -198 -16 -2030z"/>
<path d="M1770 3490 c-294 -291 -539 -530 -544 -530 -5 0 -152 108 -327 240
-176 132 -325 240 -332 240 -6 0 -67 -18 -135 -41 l-124 -41 106 -105 c69 -69
110 -102 118 -97 7 4 9 3 5 -1 -4 -5 92 -109 214 -231 l222 -222 -327 -322
c-179 -178 -326 -326 -326 -329 0 -4 57 -25 127 -48 l126 -42 115 87 c63 48
154 116 202 152 49 36 140 104 202 151 62 47 118 89 124 92 12 7 31 -11 636
-610 416 -412 459 -452 480 -444 13 5 73 31 133 56 181 78 315 135 408 174
l87 36 -2 1048 -3 1048 -55 24 c-148 66 -555 236 -574 240 -17 4 -124 -97
-556 -525z m543 -777 c-2 -307 -6 -560 -9 -562 -3 -2 -173 121 -377 274 -360
271 -370 279 -348 294 12 9 52 39 89 67 90 68 247 186 299 225 24 17 40 36 36
42 -3 6 -1 7 5 3 7 -4 60 30 124 78 140 105 181 136 182 136 1 0 0 -251 -1
-557z"/>
</g>
</svg>
