<?xml version="1.0" standalone="no"?>
<!DOCTYPE svg PUBLIC "-//W3C//DTD SVG 20010904//EN"
 "http://www.w3.org/TR/2001/REC-SVG-20010904/DTD/svg10.dtd">
<svg version="1.0" xmlns="http://www.w3.org/2000/svg"
 width="921.000000pt" height="933.000000pt" viewBox="0 0 921.000000 933.000000"
 preserveAspectRatio="xMidYMid meet">
<metadata>
Created by potrace 1.16, written by Peter Selinger 2001-2019
</metadata>
<g transform="translate(0.000000,933.000000) scale(0.100000,-0.100000)"
fill="#000000" stroke="none">
<path d="M3580 9003 c-364 -61 -636 -344 -682 -709 l-12 -93 -855 -3 c-844 -3
-857 -3 -911 -24 -203 -78 -335 -217 -385 -404 -22 -83 -22 -6857 0 -6940 52
-195 211 -355 410 -411 42 -12 431 -14 2565 -14 2440 0 2517 1 2570 19 197 68
327 196 385 378 23 73 25 94 25 269 l0 189 -2555 0 -2555 0 0 3040 0 3040 371
-2 370 -3 25 -73 c58 -173 173 -291 353 -361 l66 -26 962 -3 c1061 -3 1026 -5
1162 60 95 45 206 158 254 258 19 41 39 92 42 113 l7 37 319 0 319 0 0 -327
c0 -181 5 -357 11 -393 20 -129 96 -244 200 -307 219 -131 498 -47 611 184
l33 68 3 575 3 575 -26 81 c-54 176 -175 300 -364 373 l-66 26 -856 3 -855 3
-11 87 c-23 184 -99 346 -223 473 -120 123 -259 200 -422 233 -70 15 -226 19
-288 9z m283 -478 c71 -35 140 -107 175 -183 22 -47 27 -71 27 -142 0 -75 -4
-93 -32 -152 -121 -257 -472 -288 -627 -54 -96 145 -82 323 34 450 82 89 153
117 280 113 69 -3 96 -9 143 -32z"/>
<path d="M5998 5880 c-313 -39 -622 -147 -875 -303 -540 -335 -904 -904 -982
-1537 -16 -122 -13 -401 4 -532 60 -457 267 -873 599 -1204 309 -308 681 -504
1114 -586 158 -30 562 -33 712 -5 465 87 841 283 1157 604 310 315 500 691
580 1148 26 152 24 519 -5 675 -60 326 -179 609 -373 885 -85 120 -346 381
-466 465 -280 197 -576 320 -903 375 -109 19 -459 28 -562 15z m1088 -925 c58
-28 112 -82 146 -147 19 -36 23 -59 23 -133 l0 -90 -489 -975 c-269 -536 -499
-990 -513 -1007 -56 -77 -188 -132 -282 -118 -63 9 -139 47 -183 92 -63 65
-617 785 -641 833 -33 66 -32 195 2 264 30 60 86 118 143 147 59 31 177 38
246 15 72 -24 120 -71 272 -269 74 -97 138 -173 141 -169 4 4 170 331 369 727
200 396 376 736 391 756 28 36 110 86 163 100 54 14 156 1 212 -26z"/>
<path d="M2280 5315 l0 -515 515 0 515 0 0 515 0 515 -515 0 -515 0 0 -515z
m750 5 l0 -230 -230 0 -230 0 0 230 0 230 230 0 230 0 0 -230z"/>
<path d="M2280 3810 l0 -520 515 0 515 0 0 520 0 520 -515 0 -515 0 0 -520z
m750 0 l0 -230 -230 0 -230 0 0 230 0 230 230 0 230 0 0 -230z"/>
<path d="M2280 2300 l0 -520 515 0 515 0 0 520 0 520 -515 0 -515 0 0 -520z
m750 0 l0 -230 -230 0 -230 0 0 230 0 230 230 0 230 0 0 -230z"/>
</g>
</svg>
