<?xml version="1.0" standalone="no"?>
<!DOCTYPE svg PUBLIC "-//W3C//DTD SVG 20010904//EN"
 "http://www.w3.org/TR/2001/REC-SVG-20010904/DTD/svg10.dtd">
<svg version="1.0" xmlns="http://www.w3.org/2000/svg"
 width="1024.000000pt" height="1024.000000pt" viewBox="0 0 1024.000000 1024.000000"
 preserveAspectRatio="xMidYMid meet">
<metadata>
Created by potrace 1.16, written by Peter Selinger 2001-2019
</metadata>
<g transform="translate(0.000000,1024.000000) scale(0.100000,-0.100000)"
fill="#000000" stroke="none">
<path d="M4840 9599 c-850 -49 -1723 -369 -2405 -882 -327 -247 -665 -585
-912 -912 -343 -456 -608 -1013 -752 -1575 -175 -688 -184 -1439 -25 -2118 26
-112 31 -158 8 -77 -27 98 -84 403 -105 565 -31 238 -36 770 -9 1018 83 772
354 1495 794 2117 85 122 230 304 321 405 l67 75 -82 -84 c-100 -103 -240
-270 -344 -411 -435 -585 -724 -1269 -845 -1995 -48 -285 -56 -394 -56 -765 0
-371 8 -480 56 -765 304 -1819 1646 -3277 3429 -3725 564 -142 1160 -178 1735
-104 1629 209 3028 1267 3669 2776 172 406 284 834 343 1318 25 207 25 793 0
1000 -71 579 -212 1064 -452 1555 -196 400 -490 824 -775 1116 l-82 84 67 -75
c259 -288 500 -645 674 -998 107 -216 146 -310 224 -542 111 -328 180 -643
217 -982 27 -248 22 -780 -9 -1018 -21 -162 -78 -467 -105 -565 -23 -81 -18
-35 8 77 236 1011 101 2111 -374 3043 -220 432 -476 783 -829 1136 -353 353
-704 609 -1136 829 -712 363 -1500 526 -2315 479z m1290 -2240 c207 -19 493
-92 610 -155 25 -14 88 -60 140 -104 112 -94 146 -107 232 -90 32 6 73 17 90
24 29 13 40 11 118 -16 47 -17 92 -34 101 -39 15 -8 12 -25 -31 -171 -88 -303
-103 -348 -114 -348 -6 0 -53 11 -105 25 -91 23 -96 26 -150 84 -43 45 -67 62
-101 71 -99 27 -277 -10 -337 -69 -63 -63 -177 -367 -297 -796 -37 -132 -71
-247 -74 -257 -6 -14 -22 -12 -142 24 -74 22 -137 41 -139 43 -2 2 29 115 68
252 136 478 143 510 148 678 8 243 -23 376 -115 492 -78 97 -179 136 -403 154
-128 11 -326 2 -386 -17 -10 -3 0 11 22 31 117 107 404 188 685 194 36 0 117
-4 180 -10z m-50 -731 c0 -7 -4 -18 -8 -24 -4 -6 -729 -129 -1612 -273 -883
-144 -1605 -263 -1606 -264 -3 -5 433 -2908 438 -2912 3 -3 407 58 899 134
889 139 917 142 906 106 -4 -10 -1835 -300 -1843 -292 -8 8 -451 2992 -445
2998 6 7 3197 536 3244 538 16 1 27 -4 27 -11z m754 -1520 c128 -766 232
-1394 232 -1395 -1 -1 -281 -47 -621 -101 -588 -93 -620 -98 -629 -80 -5 10
-7 20 -5 22 2 2 265 45 584 95 319 50 589 93 601 96 20 4 16 35 -205 1358
-210 1262 -224 1355 -211 1387 8 18 16 28 18 22 2 -6 108 -638 236 -1404z
m-2003 1199 c40 -27 898 -1046 898 -1067 1 -8 -3 -20 -7 -27 -4 -7 -172 186
-447 514 -242 290 -453 534 -470 545 -57 35 -128 18 -179 -42 -31 -38 -35
-102 -9 -140 10 -14 237 -290 505 -613 268 -323 488 -593 488 -600 -1 -51 -41
-7 -516 565 -274 331 -506 613 -516 626 -55 82 -11 205 87 248 49 22 127 17
166 -9z m-153 -500 c46 -21 86 -66 97 -108 5 -20 -6 -58 -42 -143 -26 -64 -52
-116 -57 -116 -14 0 -310 110 -319 119 -9 9 75 217 96 238 44 44 142 49 225
10z m-168 -346 c96 -35 154 -62 152 -70 -3 -15 -513 -1305 -518 -1310 -5 -5
-333 130 -339 140 -3 4 113 298 257 653 186 456 267 646 278 645 8 0 85 -26
170 -58z m1669 -38 c6 -4 0 -29 -165 -733 -277 -1176 -385 -1612 -414 -1670
-50 -99 -115 -141 -217 -139 -163 2 -286 109 -299 261 -6 63 -5 66 395 1203
221 627 403 1145 405 1151 3 7 53 -3 148 -30 78 -22 145 -42 147 -43z m283
-273 c15 -85 24 -157 20 -161 -6 -6 -299 -49 -334 -49 -24 0 -11 37 15 43 12
3 80 13 150 23 121 16 128 18 123 38 -2 12 -13 65 -22 119 l-18 99 -35 -5
c-20 -3 -64 -9 -98 -13 -60 -6 -63 -5 -63 15 0 11 6 21 13 22 6 0 50 7 97 14
133 20 120 33 152 -145z m-1044 -165 c71 -90 115 -152 108 -156 -20 -11 -1095
-183 -1102 -177 -5 6 112 334 125 350 6 7 729 138 743 134 4 0 60 -68 126
-151z m-1398 -112 c-97 -229 -130 -298 -147 -305 -20 -8 -404 -60 -409 -56 -5
6 -47 318 -43 322 3 4 581 102 616 105 8 1 1 -24 -17 -66z m2178 -183 c57 -26
139 -111 179 -185 95 -181 104 -381 21 -521 -11 -19 -22 -33 -24 -31 -2 2 -8
28 -14 57 -15 79 -47 113 -148 160 -157 73 -212 114 -212 155 0 35 8 34 52 -8
23 -22 87 -61 146 -90 98 -47 173 -103 184 -137 11 -32 22 5 26 88 5 103 -14
195 -59 289 -34 71 -117 162 -166 182 -29 12 -35 11 -77 -18 -53 -37 -56 -37
-49 -8 5 23 70 87 88 87 6 0 29 -9 53 -20z m-2245 -571 c84 -34 156 -65 161
-69 4 -5 -81 -119 -190 -254 -109 -135 -200 -244 -202 -242 -7 8 62 626 71
626 4 0 76 -28 160 -61z"/>
<path d="M4498 5771 c-21 -17 -88 -153 -88 -180 0 -5 55 -29 123 -54 l122 -46
33 72 c43 91 49 129 29 161 -39 58 -169 86 -219 47z"/>
<path d="M4187 5063 c-91 -225 -204 -501 -250 -614 l-84 -206 133 -55 134 -55
69 176 c38 97 149 376 246 620 96 244 174 445 173 447 -3 2 -249 94 -253 94
-1 0 -77 -183 -168 -407z"/>
<path d="M4921 5029 c-184 -33 -336 -61 -339 -63 -6 -7 -100 -261 -98 -264 3
-3 967 156 971 160 7 6 -178 228 -188 227 -7 0 -162 -28 -346 -60z"/>
<path d="M3707 4840 c-126 -21 -231 -41 -235 -44 -6 -6 24 -225 32 -233 5 -5
302 35 334 45 18 5 36 35 78 132 29 69 54 128 54 133 0 10 -13 9 -263 -33z"/>
<path d="M3820 4108 c0 -7 -9 -98 -21 -201 -11 -103 -19 -195 -17 -204 2 -11
53 47 136 152 73 93 129 172 125 176 -8 7 -208 89 -218 89 -3 0 -5 -6 -5 -12z"/>
</g>
</svg>
